# xmcd
#
# Track frame offsets: 
#        150
#        26545
#        55413
#        78276
#        88476
#        106176
#        115376
#        137196
#        153320
#        166396
#        181063
#        196938
#        217639
#        234483
#        247339
#        265169
#        278194
#        295150
#        309864
#        329558
#        349589
#
# Disc length: 4854 seconds
#
# Revision: 0
# Processed by: cddbd v1.5.2PL0 Copyright (c) Steve Scherf et al.
# Submitted via: ExactAudioCopyFreeDBPlugin 1.0
#
DISCID=2d12f415
DTITLE=The Stylistics - Free Soul The Classic Of The Stylistics
DYEAR=2014
DGENRE=Soul
TTITLE0=Hurry Up This Way Again
TTITLE1=People Make The World Go Round
TTITLE2=Love Comes Easy
TTITLE3=Ebony Eyes
TTITLE4=Let Them Work It Out
TTITLE5=If I Love You
TTITLE6=You Make Me Feel Brand New
TTITLE7=You'll Never Get To Heaven (If You Break My Heart)
TTITLE8=Country Living
TTITLE9=Shame And Scandal In The Family
TTITLE10=Rockin' Roll Baby
TTITLE11=Found A Love You Couldn't Handle
TTITLE12=Betcha By Golly, Wow
TTITLE13=Stop, Look, Listen (To Your Heart)
TTITLE14=Break Up To Make Up
TTITLE15=You Are Everything
TTITLE16=You're As Right As Rain
TTITLE17=Can't Give You Anything (But My Love)
TTITLE18=Easy Loving You
TTITLE19=Human Nature
TTITLE20=This Christmas
EXTD=
EXTT0=
EXTT1=
EXTT2=
EXTT3=
EXTT4=
EXTT5=
EXTT6=
EXTT7=
EXTT8=
EXTT9=
EXTT10=
EXTT11=
EXTT12=
EXTT13=
EXTT14=
EXTT15=
EXTT16=
EXTT17=
EXTT18=
EXTT19=
EXTT20=
PLAYORDER=
